<mxfile host="app.diagrams.net" agent="Mozilla/5.0 (Windows NT 10.0; Win64; x64) AppleWebKit/537.36 (KHTML, like Gecko) Chrome/136.0.0.0 Safari/537.36" version="26.2.14">
  <diagram name="Page-1" id="o-3fu74XiKleny4-4UKd">
    <mxGraphModel dx="1603" dy="1065" grid="1" gridSize="10" guides="1" tooltips="1" connect="1" arrows="1" fold="1" page="1" pageScale="1" pageWidth="827" pageHeight="1169" math="0" shadow="0">
      <root>
        <mxCell id="0" />
        <mxCell id="1" parent="0" />
        <mxCell id="5_-WwdwFaaSZdfjQdtAf-68" value="&lt;&lt;Singleton&gt;&gt;&#xa;InventoryManager" style="swimlane;fontStyle=1;align=center;verticalAlign=top;childLayout=stackLayout;horizontal=1;startSize=51.2;horizontalStack=0;resizeParent=1;resizeParentMax=0;resizeLast=0;collapsible=0;marginBottom=0;" vertex="1" parent="1">
          <mxGeometry x="18" y="170" width="504" height="263.2" as="geometry" />
        </mxCell>
        <mxCell id="5_-WwdwFaaSZdfjQdtAf-69" value="-instance: InventoryManager$  // static singleton instance" style="text;strokeColor=none;fillColor=none;align=left;verticalAlign=top;spacingLeft=4;spacingRight=4;overflow=hidden;rotatable=0;points=[[0,0.5],[1,0.5]];portConstraint=eastwest;" vertex="1" parent="5_-WwdwFaaSZdfjQdtAf-68">
          <mxGeometry y="51.2" width="504" height="34" as="geometry" />
        </mxCell>
        <mxCell id="5_-WwdwFaaSZdfjQdtAf-70" value="-inventory: List" style="text;strokeColor=none;fillColor=none;align=left;verticalAlign=top;spacingLeft=4;spacingRight=4;overflow=hidden;rotatable=0;points=[[0,0.5],[1,0.5]];portConstraint=eastwest;" vertex="1" parent="5_-WwdwFaaSZdfjQdtAf-68">
          <mxGeometry y="85.2" width="504" height="34" as="geometry" />
        </mxCell>
        <mxCell id="5_-WwdwFaaSZdfjQdtAf-71" style="line;strokeWidth=1;fillColor=none;align=left;verticalAlign=middle;spacingTop=-1;spacingLeft=3;spacingRight=3;rotatable=0;labelPosition=right;points=[];portConstraint=eastwest;strokeColor=inherit;" vertex="1" parent="5_-WwdwFaaSZdfjQdtAf-68">
          <mxGeometry y="119.2" width="504" height="8" as="geometry" />
        </mxCell>
        <mxCell id="5_-WwdwFaaSZdfjQdtAf-72" value="-InventoryManager() : // private constructor" style="text;strokeColor=none;fillColor=none;align=left;verticalAlign=top;spacingLeft=4;spacingRight=4;overflow=hidden;rotatable=0;points=[[0,0.5],[1,0.5]];portConstraint=eastwest;" vertex="1" parent="5_-WwdwFaaSZdfjQdtAf-68">
          <mxGeometry y="127.2" width="504" height="34" as="geometry" />
        </mxCell>
        <mxCell id="5_-WwdwFaaSZdfjQdtAf-73" value="+getInstance() : : InventoryManager" style="text;strokeColor=none;fillColor=none;align=left;verticalAlign=top;spacingLeft=4;spacingRight=4;overflow=hidden;rotatable=0;points=[[0,0.5],[1,0.5]];portConstraint=eastwest;" vertex="1" parent="5_-WwdwFaaSZdfjQdtAf-68">
          <mxGeometry y="161.2" width="504" height="34" as="geometry" />
        </mxCell>
        <mxCell id="5_-WwdwFaaSZdfjQdtAf-74" value="+addItem(item: JewelryItem) : : void" style="text;strokeColor=none;fillColor=none;align=left;verticalAlign=top;spacingLeft=4;spacingRight=4;overflow=hidden;rotatable=0;points=[[0,0.5],[1,0.5]];portConstraint=eastwest;" vertex="1" parent="5_-WwdwFaaSZdfjQdtAf-68">
          <mxGeometry y="195.2" width="504" height="34" as="geometry" />
        </mxCell>
        <mxCell id="5_-WwdwFaaSZdfjQdtAf-75" value="+removeItem(item: JewelryItem) : : void" style="text;strokeColor=none;fillColor=none;align=left;verticalAlign=top;spacingLeft=4;spacingRight=4;overflow=hidden;rotatable=0;points=[[0,0.5],[1,0.5]];portConstraint=eastwest;" vertex="1" parent="5_-WwdwFaaSZdfjQdtAf-68">
          <mxGeometry y="229.2" width="504" height="34" as="geometry" />
        </mxCell>
        <mxCell id="5_-WwdwFaaSZdfjQdtAf-76" value="&lt;&lt;interface&gt;&gt;&#xa;JewelryItem" style="swimlane;fontStyle=1;align=center;verticalAlign=top;childLayout=stackLayout;horizontal=1;startSize=62.25;horizontalStack=0;resizeParent=1;resizeParentMax=0;resizeLast=0;collapsible=0;marginBottom=0;" vertex="1" parent="1">
          <mxGeometry x="139" y="506" width="263" height="154.25" as="geometry" />
        </mxCell>
        <mxCell id="5_-WwdwFaaSZdfjQdtAf-77" style="line;strokeWidth=1;fillColor=none;align=left;verticalAlign=middle;spacingTop=-1;spacingLeft=3;spacingRight=3;rotatable=0;labelPosition=right;points=[];portConstraint=eastwest;strokeColor=inherit;" vertex="1" parent="5_-WwdwFaaSZdfjQdtAf-76">
          <mxGeometry y="62.25" width="263" height="8" as="geometry" />
        </mxCell>
        <mxCell id="5_-WwdwFaaSZdfjQdtAf-78" value="+getPrice() : : double" style="text;strokeColor=none;fillColor=none;align=left;verticalAlign=top;spacingLeft=4;spacingRight=4;overflow=hidden;rotatable=0;points=[[0,0.5],[1,0.5]];portConstraint=eastwest;" vertex="1" parent="5_-WwdwFaaSZdfjQdtAf-76">
          <mxGeometry y="70.25" width="263" height="42" as="geometry" />
        </mxCell>
        <mxCell id="5_-WwdwFaaSZdfjQdtAf-79" value="+getDescription() : : String" style="text;strokeColor=none;fillColor=none;align=left;verticalAlign=top;spacingLeft=4;spacingRight=4;overflow=hidden;rotatable=0;points=[[0,0.5],[1,0.5]];portConstraint=eastwest;" vertex="1" parent="5_-WwdwFaaSZdfjQdtAf-76">
          <mxGeometry y="112.25" width="263" height="42" as="geometry" />
        </mxCell>
        <mxCell id="5_-WwdwFaaSZdfjQdtAf-80" value="Ring" style="swimlane;fontStyle=1;align=center;verticalAlign=top;childLayout=stackLayout;horizontal=1;startSize=40;horizontalStack=0;resizeParent=1;resizeParentMax=0;resizeLast=0;collapsible=0;marginBottom=0;" vertex="1" parent="1">
          <mxGeometry x="9" y="730" width="232" height="168" as="geometry" />
        </mxCell>
        <mxCell id="5_-WwdwFaaSZdfjQdtAf-81" value="-size: double" style="text;strokeColor=none;fillColor=none;align=left;verticalAlign=top;spacingLeft=4;spacingRight=4;overflow=hidden;rotatable=0;points=[[0,0.5],[1,0.5]];portConstraint=eastwest;" vertex="1" parent="5_-WwdwFaaSZdfjQdtAf-80">
          <mxGeometry y="40" width="232" height="40" as="geometry" />
        </mxCell>
        <mxCell id="5_-WwdwFaaSZdfjQdtAf-82" style="line;strokeWidth=1;fillColor=none;align=left;verticalAlign=middle;spacingTop=-1;spacingLeft=3;spacingRight=3;rotatable=0;labelPosition=right;points=[];portConstraint=eastwest;strokeColor=inherit;" vertex="1" parent="5_-WwdwFaaSZdfjQdtAf-80">
          <mxGeometry y="80" width="232" height="8" as="geometry" />
        </mxCell>
        <mxCell id="5_-WwdwFaaSZdfjQdtAf-83" value="+getPrice() : : double" style="text;strokeColor=none;fillColor=none;align=left;verticalAlign=top;spacingLeft=4;spacingRight=4;overflow=hidden;rotatable=0;points=[[0,0.5],[1,0.5]];portConstraint=eastwest;" vertex="1" parent="5_-WwdwFaaSZdfjQdtAf-80">
          <mxGeometry y="88" width="232" height="40" as="geometry" />
        </mxCell>
        <mxCell id="5_-WwdwFaaSZdfjQdtAf-84" value="+getDescription() : : String" style="text;strokeColor=none;fillColor=none;align=left;verticalAlign=top;spacingLeft=4;spacingRight=4;overflow=hidden;rotatable=0;points=[[0,0.5],[1,0.5]];portConstraint=eastwest;" vertex="1" parent="5_-WwdwFaaSZdfjQdtAf-80">
          <mxGeometry y="128" width="232" height="40" as="geometry" />
        </mxCell>
        <mxCell id="5_-WwdwFaaSZdfjQdtAf-85" value="Necklace" style="swimlane;fontStyle=1;align=center;verticalAlign=top;childLayout=stackLayout;horizontal=1;startSize=40;horizontalStack=0;resizeParent=1;resizeParentMax=0;resizeLast=0;collapsible=0;marginBottom=0;" vertex="1" parent="1">
          <mxGeometry x="291" y="730" width="250" height="168" as="geometry" />
        </mxCell>
        <mxCell id="5_-WwdwFaaSZdfjQdtAf-86" value="-length: double" style="text;strokeColor=none;fillColor=none;align=left;verticalAlign=top;spacingLeft=4;spacingRight=4;overflow=hidden;rotatable=0;points=[[0,0.5],[1,0.5]];portConstraint=eastwest;" vertex="1" parent="5_-WwdwFaaSZdfjQdtAf-85">
          <mxGeometry y="40" width="250" height="40" as="geometry" />
        </mxCell>
        <mxCell id="5_-WwdwFaaSZdfjQdtAf-87" style="line;strokeWidth=1;fillColor=none;align=left;verticalAlign=middle;spacingTop=-1;spacingLeft=3;spacingRight=3;rotatable=0;labelPosition=right;points=[];portConstraint=eastwest;strokeColor=inherit;" vertex="1" parent="5_-WwdwFaaSZdfjQdtAf-85">
          <mxGeometry y="80" width="250" height="8" as="geometry" />
        </mxCell>
        <mxCell id="5_-WwdwFaaSZdfjQdtAf-88" value="+getPrice() : : double" style="text;strokeColor=none;fillColor=none;align=left;verticalAlign=top;spacingLeft=4;spacingRight=4;overflow=hidden;rotatable=0;points=[[0,0.5],[1,0.5]];portConstraint=eastwest;" vertex="1" parent="5_-WwdwFaaSZdfjQdtAf-85">
          <mxGeometry y="88" width="250" height="40" as="geometry" />
        </mxCell>
        <mxCell id="5_-WwdwFaaSZdfjQdtAf-89" value="+getDescription() : : String" style="text;strokeColor=none;fillColor=none;align=left;verticalAlign=top;spacingLeft=4;spacingRight=4;overflow=hidden;rotatable=0;points=[[0,0.5],[1,0.5]];portConstraint=eastwest;" vertex="1" parent="5_-WwdwFaaSZdfjQdtAf-85">
          <mxGeometry y="128" width="250" height="40" as="geometry" />
        </mxCell>
        <mxCell id="5_-WwdwFaaSZdfjQdtAf-90" value="" style="curved=1;dashed=1;startArrow=block;startSize=16;startFill=0;endArrow=none;exitX=0.07;exitY=1;entryX=0.5;entryY=0;rounded=0;" edge="1" parent="1" source="5_-WwdwFaaSZdfjQdtAf-76" target="5_-WwdwFaaSZdfjQdtAf-80">
          <mxGeometry relative="1" as="geometry">
            <Array as="points">
              <mxPoint x="125" y="705" />
            </Array>
          </mxGeometry>
        </mxCell>
        <mxCell id="5_-WwdwFaaSZdfjQdtAf-91" value="" style="curved=1;dashed=1;startArrow=block;startSize=16;startFill=0;endArrow=none;exitX=0.93;exitY=1;entryX=0.5;entryY=0;rounded=0;" edge="1" parent="1" source="5_-WwdwFaaSZdfjQdtAf-76" target="5_-WwdwFaaSZdfjQdtAf-85">
          <mxGeometry relative="1" as="geometry">
            <Array as="points">
              <mxPoint x="416" y="705" />
            </Array>
          </mxGeometry>
        </mxCell>
        <mxCell id="5_-WwdwFaaSZdfjQdtAf-92" value="manages" style="curved=1;dashed=1;startArrow=none;endArrow=open;endSize=12;exitX=0.5;exitY=1;entryX=0.5;entryY=0;rounded=0;" edge="1" parent="1" source="5_-WwdwFaaSZdfjQdtAf-68" target="5_-WwdwFaaSZdfjQdtAf-76">
          <mxGeometry relative="1" as="geometry">
            <Array as="points" />
          </mxGeometry>
        </mxCell>
        <mxCell id="5_-WwdwFaaSZdfjQdtAf-288" value="Customer" style="shape=umlLifeline;perimeter=lifelinePerimeter;whiteSpace=wrap;container=1;dropTarget=0;collapsible=0;recursiveResize=0;outlineConnect=0;portConstraint=eastwest;newEdgeStyle={&quot;edgeStyle&quot;:&quot;elbowEdgeStyle&quot;,&quot;elbow&quot;:&quot;vertical&quot;,&quot;curved&quot;:0,&quot;rounded&quot;:0};size=65;" vertex="1" parent="1">
          <mxGeometry x="644" y="180" width="150" height="460" as="geometry" />
        </mxCell>
        <mxCell id="5_-WwdwFaaSZdfjQdtAf-289" value="InventoryManager" style="shape=umlLifeline;perimeter=lifelinePerimeter;whiteSpace=wrap;container=1;dropTarget=0;collapsible=0;recursiveResize=0;outlineConnect=0;portConstraint=eastwest;newEdgeStyle={&quot;edgeStyle&quot;:&quot;elbowEdgeStyle&quot;,&quot;elbow&quot;:&quot;vertical&quot;,&quot;curved&quot;:0,&quot;rounded&quot;:0};size=65;" vertex="1" parent="1">
          <mxGeometry x="912" y="180" width="150" height="460" as="geometry" />
        </mxCell>
        <mxCell id="5_-WwdwFaaSZdfjQdtAf-290" value="getInstance()" style="verticalAlign=bottom;edgeStyle=elbowEdgeStyle;elbow=vertical;curved=0;rounded=0;endArrow=block;" edge="1" parent="1" source="5_-WwdwFaaSZdfjQdtAf-288" target="5_-WwdwFaaSZdfjQdtAf-289">
          <mxGeometry relative="1" as="geometry">
            <Array as="points">
              <mxPoint x="862" y="289" />
            </Array>
          </mxGeometry>
        </mxCell>
        <mxCell id="5_-WwdwFaaSZdfjQdtAf-291" value="InventoryManager instance" style="verticalAlign=bottom;edgeStyle=elbowEdgeStyle;elbow=vertical;curved=0;rounded=0;dashed=1;dashPattern=2 3;endArrow=block;" edge="1" parent="1" source="5_-WwdwFaaSZdfjQdtAf-289" target="5_-WwdwFaaSZdfjQdtAf-288">
          <mxGeometry relative="1" as="geometry">
            <Array as="points">
              <mxPoint x="865" y="343" />
            </Array>
          </mxGeometry>
        </mxCell>
        <mxCell id="5_-WwdwFaaSZdfjQdtAf-292" value="addItem(new Ring( size=7 ))" style="verticalAlign=bottom;edgeStyle=elbowEdgeStyle;elbow=vertical;curved=0;rounded=0;endArrow=block;" edge="1" parent="1" source="5_-WwdwFaaSZdfjQdtAf-288" target="5_-WwdwFaaSZdfjQdtAf-289">
          <mxGeometry relative="1" as="geometry">
            <Array as="points">
              <mxPoint x="862" y="397" />
            </Array>
          </mxGeometry>
        </mxCell>
        <mxCell id="5_-WwdwFaaSZdfjQdtAf-293" value="/* add ring to inventory */" style="curved=1;endArrow=block;rounded=0;" edge="1" parent="1" source="5_-WwdwFaaSZdfjQdtAf-289" target="5_-WwdwFaaSZdfjQdtAf-289">
          <mxGeometry relative="1" as="geometry">
            <Array as="points">
              <mxPoint x="1038" y="451" />
              <mxPoint x="1038" y="481" />
            </Array>
          </mxGeometry>
        </mxCell>
        <mxCell id="5_-WwdwFaaSZdfjQdtAf-294" value="confirmation" style="verticalAlign=bottom;edgeStyle=elbowEdgeStyle;elbow=vertical;curved=0;rounded=0;dashed=1;dashPattern=2 3;endArrow=block;" edge="1" parent="1" source="5_-WwdwFaaSZdfjQdtAf-289" target="5_-WwdwFaaSZdfjQdtAf-288">
          <mxGeometry relative="1" as="geometry">
            <Array as="points">
              <mxPoint x="865" y="535" />
            </Array>
          </mxGeometry>
        </mxCell>
      </root>
    </mxGraphModel>
  </diagram>
</mxfile>
